#!OML:ASF H:\Dans Jumps\Project 1\Capture day 1\Session 1\subject.ASF
:FULLY-SPECIFIED
:DEGREES
236
root 0.36577 17.5183 -14.1918 5.85611 -0.930133 -1.67834
lowerback -1.13353 -0.406963 0.200822
upperback 2.98842 -0.603241 1.63175
thorax 3.72447 -0.321229 1.54117
lowerneck -14.4869 0.607553 -1.8587
upperneck 31.8198 1.12227 0.883385
head 13.0318 0.381596 0.837217
rclavicle 8.15017e-015 -7.55382e-015
rhumerus -22.872 -16.5554 -79.6573
rradius 25.1786
rwrist 32.2099
rhand -19.0378 -26.4858
rfingers 7.12502
rthumb 7.26866 -56.3409
lclavicle 8.15017e-015 -7.55382e-015
lhumerus -21.8428 2.87232 84.5187
lradius 18.0261
lwrist 0.141662
lhand -24.3717 -3.36104
lfingers 7.12502
lthumb 2.11839 26.6082
rfemur -13.1948 -2.65489 19.4048
rtibia 21.423
rfoot -13.3408 -2.793
rtoes 9.15113
lfemur -12.3514 6.79581 -17.4518
ltibia 20.0668
lfoot -11.5247 4.41022
ltoes -2.09338
237
root 0.365792 17.5181 -14.1885 5.84916 -0.939684 -1.67166
lowerback -1.14313 -0.405854 0.204724
upperback 2.98606 -0.601806 1.62713
thorax 3.72732 -0.320322 1.53422
lowerneck -14.4665 0.618543 -1.86426
upperneck 31.8514 1.13775 0.889128
head 13.0403 0.388203 0.842928
rclavicle -9.44227e-015 -2.38542e-015
rhumerus -22.8844 -16.5559 -79.6631
rradius 25.1615
rwrist 32.2265
rhand -19.0342 -26.4871
rfingers 7.12502
rthumb 7.27215 -56.3422
lclavicle -9.44227e-015 -2.38542e-015
lhumerus -21.8504 2.70676 84.6079
lradius 18.0698
lwrist 0.228382
lhand -24.3449 -3.35449
lfingers 7.12502
lthumb 2.14424 26.6145
rfemur -13.1796 -2.65765 19.397
rtibia 21.4303
rfoot -13.3553 -2.78556
rtoes 9.14411
lfemur -12.3242 6.79564 -17.4578
ltibia 20.0567
lfoot -11.529 4.42279
ltoes -2.1115
238
root 0.365902 17.5179 -14.1853 5.84332 -0.948184 -1.66667
lowerback -1.14956 -0.405983 0.212124
upperback 2.98236 -0.602081 1.62276
thorax 3.727 -0.320156 1.52552
lowerneck -14.4532 0.628807 -1.87001
upperneck 31.8855 1.15308 0.892758
head 13.0515 0.394403 0.847907
rclavicle 7.45443e-016 -9.93923e-016
rhumerus -22.8913 -16.5636 -79.668
rradius 25.1351
rwrist 32.2544
rhand -19.0305 -26.4871
rfingers 7.12502
rthumb 7.27574 -56.342
lclavicle 7.45443e-016 -9.93923e-016
lhumerus -21.8563 2.56395 84.6881
lradius 18.111
lwrist 0.296392
lhand -24.3299 -3.35208
lfingers 7.12502
lthumb 2.15873 26.6167
rfemur -13.1652 -2.66356 19.3911
rtibia 21.4357
rfoot -13.3665 -2.77817
rtoes 9.11431
lfemur -12.3001 6.79135 -17.4623
ltibia 20.0498
lfoot -11.534 4.43791
ltoes -2.11923
239
root 0.365989 17.5177 -14.1821 5.83759 -0.955513 -1.66211
lowerback -1.15464 -0.406306 0.220963
upperback 2.97901 -0.602632 1.61793
thorax 3.72626 -0.320078 1.51552
lowerneck -14.4425 0.638802 -1.87018
upperneck 31.917 1.16883 0.889269
head 13.0622 0.400524 0.849204
rclavicle -1.98785e-015 2.98177e-015
rhumerus -22.8955 -16.5732 -79.6728
rradius 25.107
rwrist 32.2838
rhand -19.0235 -26.4864
rfingers 7.12502
rthumb 7.28248 -56.341
lclavicle -1.98785e-015 2.98177e-015
lhumerus -21.8554 2.42355 84.7632
lradius 18.1437
lwrist 0.365679
lhand -24.3182 -3.34762
lfingers 7.12502
lthumb 2.17005 26.6211
rfemur -13.1507 -2.66711 19.3858
rtibia 21.4397
rfoot -13.3758 -2.77476
rtoes 9.07645
lfemur -12.2773 6.78305 -17.4659
ltibia 20.0454
lfoot -11.5392 4.45419
ltoes -2.11904
240
root 0.366016 17.5175 -14.1791 5.83269 -0.963005 -1.65825
lowerback -1.15844 -0.406883 0.229874
upperback 2.97648 -0.603533 1.61335
thorax 3.72565 -0.32018 1.50574
lowerneck -14.4344 0.647788 -1.86913
upperneck 31.9445 1.18394 0.882287
head 13.0719 0.406083 0.848811
rclavicle 7.30534e-015 -2.66371e-014
rhumerus -22.8939 -16.5911 -79.6765
rradius 25.0722
rwrist 32.3242
rhand -19.0152 -26.4831
rfingers 7.12502
rthumb 7.29046 -56.3375
lclavicle 7.30534e-015 -2.66371e-014
lhumerus -21.8494 2.30118 84.8302
lradius 18.1747
lwrist 0.424749
lhand -24.3033 -3.33069
lfingers 7.12502
lthumb 2.18448 26.6379
rfemur -13.1376 -2.66758 19.3813
rtibia 21.4434
rfoot -13.3848 -2.77355
rtoes 9.04536
lfemur -12.2571 6.77274 -17.4685
ltibia 20.0432
lfoot -11.5449 4.47131
ltoes -2.1084
241
root 0.365987 17.5172 -14.1762 5.82655 -0.968575 -1.65364
lowerback -1.16024 -0.407343 0.238293
upperback 2.97568 -0.604233 1.60783
thorax 3.72569 -0.320188 1.49528
lowerneck -14.4319 0.654714 -1.86739
upperneck 31.9708 1.19632 0.874321
head 13.0824 0.410397 0.847532
rclavicle -5.51627e-015 4.37326e-015
rhumerus -22.8913 -16.6084 -79.6805
rradius 25.0394
rwrist 32.3638
rhand -19.0045 -26.4768
rfingers 7.12502
rthumb 7.30085 -56.3308
lclavicle -5.51627e-015 4.37326e-015
lhumerus -21.8378 2.18713 84.8907
lradius 18.2035
lwrist 0.47916
lhand -24.2881 -3.30797
lfingers 7.12502
lthumb 2.19911 26.6604
rfemur -13.1239 -2.6659 19.3759
rtibia 21.4482
rfoot -13.395 -2.77519
rtoes 9.0263
lfemur -12.2366 6.76055 -17.4713
ltibia 20.042
lfoot -11.5512 4.48767
ltoes -2.09497
242
root 0.365846 17.5169 -14.1734 5.82006 -0.972291 -1.64898
lowerback -1.16075 -0.408065 0.243533
upperback 2.97636 -0.605244 1.60386
thorax 3.7266 -0.320478 1.48819
lowerneck -14.4291 0.658483 -1.87205
upperneck 31.9907 1.20529 0.868283
head 13.0901 0.412761 0.847534
rclavicle 3.57812e-015 -1.09332e-014
rhumerus -22.8854 -16.6231 -79.6831
rradius 25.0075
rwrist 32.3988
rhand -18.9859 -26.4801
rfingers 7.12502
rthumb 7.3188 -56.3335
lclavicle 3.57812e-015 -1.09332e-014
lhumerus -21.8194 2.08262 84.9474
lradius 18.2285
lwrist 0.530421
lhand -24.2767 -3.26951
lfingers 7.12502
lthumb 2.2101 26.6988
rfemur -13.1112 -2.66036 19.3707
rtibia 21.4551
rfoot -13.4073 -2.78124
rtoes 9.01622
lfemur -12.217 6.74928 -17.4737
ltibia 20.0406
lfoot -11.5573 4.50176
ltoes -2.08813
243
root 0.365628 17.5165 -14.1707 5.81337 -0.975029 -1.64439
lowerback -1.15979 -0.408897 0.246197
upperback 2.97728 -0.606344 1.6009
thorax 3.72698 -0.320903 1.48361
lowerneck -14.4205 0.660729 -1.87556
upperneck 32.0017 1.21265 0.858792
head 13.0928 0.414195 0.845609
rclavicle 5.41688e-015 5.96354e-016
rhumerus -22.88 -16.6315 -79.6842
rradius 24.9777
rwrist 32.4297
rhand -18.9689 -26.482
rfingers 7.12502
rthumb 7.33518 -56.3349
lclavicle 5.41688e-015 5.96354e-016
lhumerus -21.7971 1.98738 84.9997
lradius 18.2472
lwrist 0.573861
lhand -24.2715 -3.2279
lfingers 7.12502
lthumb 2.21513 26.7403
rfemur -13.0989 -2.65181 19.3656
rtibia 21.464
rfoot -13.4209 -2.78864
rtoes 9.02625
lfemur -12.1983 6.7413 -17.4759
ltibia 20.0392
lfoot -11.5633 4.51377
ltoes -2.09516
244
root 0.36538 17.5162 -14.168 5.80788 -0.97422 -1.63868
lowerback -1.15926 -0.410707 0.245081
upperback 2.97847 -0.608699 1.59968
thorax 3.72796 -0.322095 1.48288
lowerneck -14.4136 0.661396 -1.87719
upperneck 32.0094 1.21905 0.843705
head 13.0947 0.414723 0.841012
rclavicle 2.03754e-015 1.19271e-015
rhumerus -22.8741 -16.6295 -79.6837
rradius 24.9513
rwrist 32.4552
rhand -18.9515 -26.4798
rfingers 7.12502
rthumb 7.35193 -56.332
lclavicle 2.03754e-015 1.19271e-015
lhumerus -21.7689 1.89818 85.0507
lradius 18.2602
lwrist 0.613365
lhand -24.2781 -3.18816
lfingers 7.12502
lthumb 2.20878 26.7801
rfemur -13.0888 -2.64735 19.3598
rtibia 21.4749
rfoot -13.4347 -2.79646
rtoes 9.02263
lfemur -12.182 6.73654 -17.4795
ltibia 20.0374
lfoot -11.5703 4.51925
ltoes -2.10744
245
root 0.365157 17.5158 -14.1655 5.80349 -0.973146 -1.63402
lowerback -1.15851 -0.411968 0.244083
upperback 2.97997 -0.610344 1.59898
thorax 3.72914 -0.32294 1.48264
lowerneck -14.4063 0.660721 -1.87808
upperneck 32.0126 1.2238 0.826956
head 13.0945 0.414444 0.835339
rclavicle 3.32964e-015 1.0138e-014
rhumerus -22.8687 -16.6206 -79.683
rradius 24.9307
rwrist 32.4764
rhand -18.9342 -26.4738
rfingers 7.12502
rthumb 7.36865 -56.3255
lclavicle 3.32964e-015 1.0138e-014
lhumerus -21.7363 1.81682 85.0973
lradius 18.2682
lwrist 0.644487
lhand -24.2864 -3.15086
lfingers 7.12502
lthumb 2.20077 26.8175
rfemur -13.0807 -2.6435 19.3553
rtibia 21.4864
rfoot -13.4477 -2.80428
rtoes 9.01365
lfemur -12.1674 6.73279 -17.4821
ltibia 20.036
lfoot -11.5763 4.52373
ltoes -2.1184
246
root 0.36498 17.5155 -14.1631 5.8006 -0.967276 -1.6283
lowerback -1.15701 -0.41506 0.241187
upperback 2.98147 -0.614389 1.59901
thorax 3.72997 -0.325048 1.48413
lowerneck -14.4047 0.659912 -1.87939
upperneck 32.0152 1.22881 0.809608
head 13.0954 0.414146 0.829583
rclavicle -1.39149e-015 -9.93923e-016
rhumerus -22.8616 -16.606 -79.6822
rradius 24.9133
rwrist 32.4979
rhand -18.9194 -26.4669
rfingers 7.12502
rthumb 7.38295 -56.3181
lclavicle -1.39149e-015 -9.93923e-016
lhumerus -21.702 1.742 85.1411
lradius 18.2776
lwrist 0.675841
lhand -24.2973 -3.10969
lfingers 7.12502
lthumb 2.19019 26.8588
rfemur -13.0735 -2.64648 19.35
rtibia 21.4974
rfoot -13.4584 -2.81156
rtoes 8.99204
lfemur -12.1561 6.72934 -17.4863
ltibia 20.0354
lfoot -11.5831 4.52239
ltoes -2.13019
247
root 0.364838 17.5153 -14.1609 5.79988 -0.958174 -1.62478
lowerback -1.15629 -0.418321 0.241969
upperback 2.98337 -0.61877 1.59848
thorax 3.73162 -0.327207 1.48295
lowerneck -14.4036 0.658781 -1.87996
upperneck 32.0133 1.23273 0.793459
head 13.0945 0.41367 0.823958
rclavicle 7.40473e-015 4.17448e-015
rhumerus -22.8544 -16.5855 -79.6835
rradius 24.9024
rwrist 32.513
rhand -18.9023 -26.4615
rfingers 7.12502
rthumb 7.39942 -56.3121
lclavicle 7.40473e-015 4.17448e-015
lhumerus -21.6643 1.66776 85.1805
lradius 18.285
lwrist 0.712076
lhand -24.305 -3.0748
lfingers 7.12502
lthumb 2.18275 26.8938
rfemur -13.0685 -2.65118 19.3476
rtibia 21.5064
rfoot -13.4657 -2.82237
rtoes 8.94757
lfemur -12.1486 6.72459 -17.4882
ltibia 20.0365
lfoot -11.5903 4.51772
ltoes -2.12929
248
root 0.364715 17.5152 -14.1587 5.79976 -0.949331 -1.62258
lowerback -1.15612 -0.421003 0.243614
upperback 2.98676 -0.622434 1.59796
thorax 3.73511 -0.328993 1.48133
lowerneck -14.4026 0.656955 -1.88573
upperneck 32.0059 1.23496 0.783822
head 13.0912 0.412748 0.821471
rclavicle -9.29318e-015 9.93923e-016
rhumerus -22.8426 -16.5706 -79.6842
rradius 24.89
rwrist 32.5351
rhand -18.8888 -26.451
rfingers 7.12502
rthumb 7.41247 -56.3012
lclavicle -9.29318e-015 9.93923e-016
lhumerus -21.6228 1.59574 85.2157
lradius 18.2907
lwrist 0.754754
lhand -24.3117 -3.06293
lfingers 7.12502
lthumb 2.17628 26.9057
rfemur -13.0636 -2.65711 19.3464
rtibia 21.5135
rfoot -13.4713 -2.83097
rtoes 8.9045
lfemur -12.1421 6.71968 -17.4889
ltibia 20.0382
lfoot -11.5983 4.51219
ltoes -2.12034
249
root 0.364572 17.5151 -14.1566 5.80063 -0.940656 -1.62283
lowerback -1.15739 -0.423149 0.247625
upperback 2.99146 -0.62549 1.59732
thorax 3.74072 -0.330413 1.47828
lowerneck -14.4063 0.655375 -1.89116
upperneck 31.9984 1.23671 0.776758
head 13.0889 0.411994 0.819886
rclavicle -9.44227e-016 1.31198e-014
rhumerus -22.8262 -16.5591 -79.685
rradius 24.8759
rwrist 32.5618
rhand -18.8826 -26.4288
rfingers 7.12502
rthumb 7.41844 -56.2787
lclavicle -9.44227e-016 1.31198e-014
lhumerus -21.5785 1.52381 85.2466
lradius 18.295
lwrist 0.804559
lhand -24.3238 -3.0782
lfingers 7.12502
lthumb 2.16467 26.8906
rfemur -13.0586 -2.65977 19.3478
rtibia 21.5185
rfoot -13.4762 -2.84099
rtoes 8.86862
lfemur -12.1375 6.71449 -17.487
ltibia 20.0406
lfoot -11.6069 4.50723
ltoes -2.10499
